<!--?xml version="1.0" encoding="utf-8"?-->
<!-- Generator: Adobe Illustrator 22.1.0, SVG Export Plug-In . SVG Version: 6.00 Build 0)  -->
<svg version="1.1" id="_x34_" xmlns="http://www.w3.org/2000/svg" xmlns:xlink="http://www.w3.org/1999/xlink" x="0px" y="0px" viewBox="0 0 800 343.9" style="enable-background:new 0 0 800 343.9;" xml:space="preserve">
<style type="text/css">
	.st0{fill:#FFFFFF;}
</style>
<g>
	<polygon points="734.9,193.2 780,171.9 734.9,150.6 773.7,123.5 727,107 753.2,62.3 704.7,68 707.9,19.3 656.5,52.5 638.7,8.6 
		582.3,50.5 568.2,8.6 516.8,50.5 504.4,8.6 455.3,50.5 444.1,8.6 400,50.5 355.9,8.6 344.7,50.5 295.6,8.6 283.2,50.5 231.8,8.6 
		217.7,50.5 161.3,8.6 143.5,52.5 92.1,19.3 95.3,68 46.8,62.3 73,107 26.3,123.5 65.1,150.6 20,171.9 65.1,193.2 26.3,220.4 
		73,236.8 46.8,281.5 95.3,275.9 92.1,324.6 143.5,291.4 161.3,335.3 217.7,293.4 231.8,335.3 283.2,293.4 295.6,335.3 344.7,293.4 
		355.9,335.3 400,293.4 444.1,335.3 455.3,293.4 504.4,335.3 516.8,293.4 568.2,335.3 582.3,293.4 638.7,335.3 656.5,291.4 
		707.9,324.6 704.7,275.9 753.2,281.5 727,236.8 773.7,220.4 	"></polygon>
	<polygon class="st0" points="576.8,275.8 562.9,317 511,274.7 498.8,316.2 449.2,274 438.4,314.9 400,278.5 361.6,314.9 350.8,274 
		301.2,316.2 289,274.7 237.1,317 223.2,275.8 166.1,318.2 148.6,275.2 104.3,303.8 106.9,263.6 67.2,268.2 89,231 49.7,217.2 
		86.6,191.4 45.4,171.9 86.6,152.5 49.7,126.7 89,112.9 67.2,75.6 106.9,80.3 104.3,40.1 148.6,68.7 166.1,25.6 223.2,68 
		237.1,26.9 289,69.1 301.2,27.7 350.8,69.9 361.6,29 400,65.4 438.4,29 449.2,69.9 498.8,27.7 511,69.1 562.9,26.9 576.8,68 
		633.9,25.6 651.4,68.7 695.7,40.1 693.1,80.3 732.8,75.6 711,112.9 750.3,126.7 713.4,152.5 754.6,171.9 713.4,191.4 750.3,217.2 
		711,231 732.8,268.2 693.1,263.6 695.7,303.8 651.4,275.2 633.9,318.2 	"></polygon>
</g>
</svg>
