<!--?xml version="1.0" encoding="utf-8"?-->
<!-- Generator: Adobe Illustrator 22.1.0, SVG Export Plug-In . SVG Version: 6.00 Build 0)  -->
<svg version="1.1" id="_x34_" xmlns="http://www.w3.org/2000/svg" xmlns:xlink="http://www.w3.org/1999/xlink" x="0px" y="0px" viewBox="0 0 800 357.4" style="width: 512px;" xml:space="preserve">
<style type="text/css">
	.stblack{fill:#000000;}
	.st0{fill:#FFFFFF;}
</style>
<g style="
transform: rotate(180deg);
transform-origin: center;
">
	<path class="st0" d="M476.6,22.8c-21.3,2.4-40.7,5.8-58.5,6.2c-22.2,0.5-41.7-2.4-58.7-4.6c-19.8-2.6-39.5-3.5-58.7-5.2
		c-20.1-1.8-39.7-3.4-58.7-4c-20.5-0.6-40.4-3-59-1.8c-20.9,1.4-40,7.6-57.8,11.8c-20.8,4.9-39.8,10.1-55.1,19.6
		c-17.3,10.8-31,24.9-39.6,42.8c-7.7,15.9-9,35-8.4,57.4c0.5,20.4,0.6,38.8,7.9,53.6c8.2,16.7,22.2,29.1,37.1,39.7
		c14,10.1,30.8,17,49,22.7c16.6,5.2,34.1,10.6,52.8,13.1c17.6,2.3,36,2.5,54.4,3c18.2,0.4,36.5,0.3,54.4-0.5
		c18.8-0.8,37.1-1.9,54.3-3.4c19.9-1.7,38.2-4.3,54.1-5.8c2.7-0.3,5.6,0.4,8.5,0.1c4.4-0.4,5.2,0.7,3.2,7.2c-7.7,25-15,56-17,61.4
		c-2.1,5.9-7.7,9.8-4.3,7.5c1.2-0.8,25.2-25.9,43.1-44c10.4-10.5,22.8-21.5,33.7-32.7c0.8-0.8,4.8-2,6-2c11.8,0.2,24.2-0.9,36.7,0.2
		c19.9,1.8,39.1,3.9,57.8,4.6c20.3,0.8,39.6-0.1,57.9-1c20.7-1,40.1-1.4,57.7-5c20.7-4.2,39.5-9.7,55-18.3
		c17.8-9.9,31.7-23.5,40.9-40.4c8.4-15.3,12.9-34,12.9-56.1c0-20.4-3-38-8.8-52.9c-7-17.7-19.2-30.4-32.8-41.5
		c-13.3-10.9-27.8-22-45.8-27.8c-16.2-5.2-34.5-7.1-53.1-9.1c-17.2-1.9-35.3-2.7-53.7-2.6c-17.7,0.1-35.7,1.6-53.7,3
		C512,19.5,494,20.8,476.6,22.8z"></path>
	<path class="stblack" d="M474.9,18.7c-18.6,2.2-37.2,5.5-56,6.2c-18.8,0.7-37.4-1.4-56-3.9c-19.6-2.6-39.3-3.8-59-5.4c-19.2-1.6-38.4-3.4-57.6-4.2
		c-18.8-0.8-37.7-2.6-56.5-2.3c-19.2,0.3-37.5,4.8-55.9,9.6c-33,8.5-65.3,15.6-89.3,41.8c-10.1,11-17.9,24.2-21.3,38.8
		c-3.7,15.8-3.4,32.2-3,48.3c0.4,15.1,0.8,30.6,5.9,45c4.7,13.3,13.3,25,23.5,34.7c25.6,24.5,58.3,36.1,91.9,45.1
		c36.3,9.7,74.8,9.4,112.1,9.1c43.2-0.4,85.9-4.9,128.9-9.3c1.7-0.2,3.4-0.4,5.1-0.5c2.2-0.1,7.9,1.3,9.7,0.1c0.4,0,0.8,0,1.1,0
		c-1.5-3.7-2.3-3.9-2.6-0.7c-1.3,1.6-1.7,5.7-2.3,7.6c-2.7,9.3-5.3,18.7-7.7,28.1c-3,11.5-4.5,24.5-12.3,33.8
		c-1,1.2,1.8,8.4,3.5,7.9c1.4-0.4,2.8-2.3,3.8-3.3c3.5-3.5,6.9-7,10.3-10.5c8.9-9.1,17.8-18.3,26.7-27.4c11.4-11.6,23.1-23,35-34
		c4.8-4.5,9.1-4,15.5-4.1c9.6-0.1,19.2-0.5,28.9,0.2c32.9,2.6,65.3,5.7,98.4,4.4c31.8-1.2,63.6-1.9,94.5-10.2
		c26.4-7.1,51.4-19.5,68.4-41.5c17.1-22.1,22.4-49.8,21.4-77.1c-0.9-25-6.6-50.7-21.8-71.1C750,63,739.9,54.3,729.4,46
		c-11.1-8.7-22.9-16.8-36.1-21.8c-16.3-6.1-34-8-51.2-9.9c-17.4-1.9-34.8-3.1-52.3-3.2C551.6,10.8,512.8,14.4,474.9,18.7
		c-1.1,0.1,1,8.4,3.3,8.2c62.4-7,125.7-11.4,188-1.7c14.2,2.2,28.2,5.5,40.9,12.3c12.3,6.5,23.4,15.2,33.9,24.2
		c11.8,10.2,22.1,21.9,27.6,36.7c5.6,15,7.3,31.5,7.3,47.4c-0.1,26.6-7.2,52.7-25,73.1c-17.8,20.3-42.6,31.1-68.3,37.6
		c-28.7,7.3-58.1,7.9-87.5,9.1c-32.8,1.3-64.9-1-97.5-4c-7.9-0.7-15.7-0.9-23.6-0.8c-6.2,0.1-15.7-1.6-21.4,1.6
		c-6.2,3.4-11.9,11.3-17.1,16.2c-6,5.7-11.9,11.3-17.7,17.1c-9.8,9.9-19.5,20-29.3,30c-3.4,3.5-6.8,7-10.2,10.5
		c-1.1,1.1-2.9,3.7-4.6,4.1c1.2,2.6,2.4,5.3,3.5,7.9c6.5-7.8,8-17.4,10.5-27c2-7.7,4.1-15.5,6.2-23.2c2.1-7.5,5.8-15.6,6.6-23.3
		c0.3-3-0.3-6.5-2.2-8.9c-2.7-3.5-7.2-2.5-11.3-2.4c-17.9,0.2-35.9,3.9-53.7,5.5c-38.2,3.4-76.6,4.9-114.9,4
		c-19.9-0.5-40-0.7-59.7-4.2c-17.7-3.2-35.1-8.5-52.1-14.4c-31.8-11-73-33.9-80.1-70c-3.5-17.8-3.3-37.5-2.4-55.6
		c0.8-16.4,4.2-31.9,12.9-45.9C55.4,53.2,86,39.4,118.5,31.3C135.5,27,152.6,22,170,19.2c18.4-3,36.8-1.9,55.3-0.8
		c45.1,2.7,90.5,4.3,135.3,10c18.6,2.4,37.1,4.9,55.9,4.7c20.7-0.2,41.2-3.9,61.7-6.3C479.3,26.7,477.2,18.4,474.9,18.7z"></path>
</g>
</svg>
