<!--?xml version="1.0" encoding="utf-8"?-->
<!-- Generator: Adobe Illustrator 22.1.0, SVG Export Plug-In . SVG Version: 6.00 Build 0)  -->
<svg version="1.1" id="_x34_" xmlns="http://www.w3.org/2000/svg" xmlns:xlink="http://www.w3.org/1999/xlink" x="0px" y="0px" viewBox="0 0 800 546.6" style="enable-background:new 0 0 800 546.6;" xml:space="preserve">
<style type="text/css">
	.stblack{fill:#000000;}
	.st0{fill:#FFFFFF;}
</style>
<g style="
transform: rotate(180deg);
transform-origin: center;
">
	<path class="stblack" d="M505.4,532.7c-4.8,0-9.5-2.1-12.8-6L438.6,450L69.8,435.8c-7.8-0.3-14.3-6-15.7-13.7L20.3,233.2c-0.3-1.9-0.3-3.9,0-5.9
		L52,50.5c1.4-7.6,7.8-13.3,15.6-13.7l478.3-23.2c0.3,0,0.5,0,0.8,0c0.7,0,1.4,0,2.1,0.1l186.7,23.3c7.5,0.9,13.4,6.7,14.4,14.2
		l30,213.4c0.4,2.7,0.1,5.4-0.8,8l-59.1,162.6c-2.3,6.4-8.3,10.7-15,10.9L513.3,453l1.5,67.6c0,7-2.8,7.4-3.7,11.1
		C510.6,533.6,507.3,532.7,505.4,532.7L505.4,532.7z"></path>
	<polygon class="st0" points="36.6,230.3 70.5,419.2 446.6,433.7 496.7,493.7 496.7,437 704.2,429.6 763.4,267 733.4,53.6 
		546.7,30.3 68.4,53.4 	"></polygon>
</g>
</svg>
